<?xml version="1.0" encoding="utf-8"?>
<!-- Generator: Adobe Illustrator 19.1.0, SVG Export Plug-In . SVG Version: 6.00 Build 0)  -->
<!DOCTYPE svg PUBLIC "-//W3C//DTD SVG 1.1//EN" "http://www.w3.org/Graphics/SVG/1.1/DTD/svg11.dtd">
<svg version="1.1" id="Layer_1" xmlns="http://www.w3.org/2000/svg" xmlns:xlink="http://www.w3.org/1999/xlink" x="0px" y="0px"
	 viewBox="0 0 262.8 36" enable-background="new 0 0 262.8 36" xml:space="preserve">
<g>
	<path fill="#FAA634" d="M38.9,0c1.8,0,2.6,1.3,1.7,2.9L22.2,34.8c-0.9,1.6-2.4,1.6-3.4,0L0.4,2.9C-0.5,1.3,0.2,0,2.1,0H38.9L38.9,0
		z"/>
	<path fill="#F6871F" d="M55.2,0H18.4h20.5c1.8,0,2.6,1.3,1.7,2.9L28.6,23.6l6.5,11.2c0.5,0.8,1.1,1.2,1.7,1.2
		c0.6,0,1.2-0.4,1.7-1.2L56.9,2.9C57.8,1.3,57.1,0,55.2,0"/>
	<path fill="#F15A26" d="M38.9,0H18.4c-1.8,0-2.6,1.3-1.7,2.9l11.9,20.7L40.6,2.9C41.5,1.3,40.7,0,38.9,0"/>
	<path fill="#4D4D4F" d="M61.3,11.4l5.9,17.3h3.4l3.6-10.5l3.6,10.5h3.4l5.9-17.3h-4.1l-3.7,11.4l-3.7-11.4h-2.7l-3.7,11.4
		l-3.7-11.4H61.3L61.3,11.4z M103,11.4h-9.8v17.3h9.8v-3.4h-5.8v-3.8h5.5v-3.4h-5.5v-3.3h5.8V11.4L103,11.4z M111,11.4v17.3h6.5
		c1.1,0,3.1-0.1,4.6-1.5c0.7-0.7,1.3-1.8,1.3-3.5c0-1.5-0.5-2.5-1.1-3.1c-0.6-0.6-1.6-1-2.4-1.2c0.4-0.2,1-0.5,1.4-1.3
		c0.5-0.8,0.6-1.5,0.6-2.2c0-0.8-0.1-2.2-1.2-3.3c-1.3-1.3-3.5-1.3-4.4-1.3H111L111,11.4z M114.9,14.5h0.6c0.7,0,1.5,0,2.1,0.4
		c0.3,0.2,0.7,0.7,0.7,1.4c0,0.8-0.3,1.3-0.7,1.5c-0.6,0.4-1.5,0.5-2,0.5h-0.6V14.5L114.9,14.5z M114.9,21.4h1.1
		c0.8,0,2.1,0,2.8,0.6c0.3,0.2,0.5,0.7,0.5,1.4c0,0.6-0.2,1.1-0.6,1.4c-0.7,0.7-1.9,0.7-3,0.7h-1V21.4L114.9,21.4z M143,23.5
		c-1.5,1.5-2.9,1.8-4,1.8c-2.1,0-3.4-1.1-3.7-1.4c-0.8-0.8-1.5-2-1.5-3.8c0-1.7,0.7-3.1,1.6-4c0.9-0.9,2.1-1.3,3.5-1.3
		c1.8,0,3.2,0.9,4,1.8V12c-1.7-0.7-3-1-4.1-1c-2.7,0-4.9,1-6.4,2.5c-1.6,1.5-2.7,3.8-2.7,6.5c0,2.8,1.1,5,2.7,6.5
		c1.4,1.4,3.6,2.5,6.8,2.5c1,0,2.3-0.2,3.8-0.9V23.5L143,23.5z M158.9,11c-3.4,0-5.6,1.4-6.8,2.5c-1.6,1.6-2.7,4.1-2.7,6.5
		c0,2.5,1,4.9,2.7,6.4c1.3,1.2,3.5,2.5,6.7,2.5c2.9,0,5.1-1,6.7-2.5c1.9-1.8,2.7-4.2,2.7-6.5c0-2.7-1.1-4.9-2.7-6.5
		C163.9,11.8,161.6,11,158.9,11L158.9,11z M158.9,14.7c1.6,0,3,0.6,3.8,1.5c0.8,0.8,1.5,2.1,1.5,3.9c0,2-0.8,3.2-1.5,3.9
		c-0.8,0.8-2.1,1.5-3.8,1.5c-1.3,0-2.6-0.4-3.7-1.4c-1.1-1-1.6-2.3-1.6-3.9c0-1.9,0.8-3.2,1.5-3.9C156.1,15.2,157.4,14.7,158.9,14.7
		L158.9,14.7z M175.4,11.4v17.3h9.3v-3.4h-5.4V11.4H175.4L175.4,11.4z M191.7,11.4v17.3h9.3v-3.4h-5.4V11.4H191.7L191.7,11.4z
		 M220.2,28.7h4.1l-6.8-17.3h-3.7l-7,17.3h4.1l1.3-3.3h6.5L220.2,28.7L220.2,28.7z M213.5,22.3l2.1-5.8l2.1,5.8H213.5L213.5,22.3z
		 M237.7,22.4h4.2c-0.3,1.3-1.1,1.9-1.2,2c-0.4,0.3-1.3,0.9-3,0.9c-1.3,0-2.5-0.3-3.5-1.3c-0.7-0.7-1.4-2-1.4-4
		c0-1.6,0.5-3.1,1.5-4.1c0.8-0.9,2-1.4,3.6-1.4c1,0,1.9,0.3,2.6,0.8c0.7,0.5,1.2,1.2,1.5,1.9l3.6-1.9c-0.6-1.1-1.6-2.3-2.8-3.1
		c-1.6-1.1-3.4-1.3-4.8-1.3c-2,0-4.7,0.3-6.8,2.5c-1.5,1.5-2.5,3.7-2.5,6.5c0,3.4,1.5,5.5,2.5,6.6c2,2.1,4.2,2.4,6.3,2.4
		c2,0,4.2-0.4,6.2-2.4c1.9-2,2.7-5.2,2.7-7.3v-0.2h-8.6V22.4L237.7,22.4z M262.8,11.4h-9.8v17.3h9.8v-3.4h-5.8v-3.8h5.5v-3.4h-5.5
		v-3.3h5.8V11.4L262.8,11.4z"/>
</g>
</svg>
